<svg xmlns="http://www.w3.org/2000/svg" xmlns:xlink="http://www.w3.org/1999/xlink" viewBox="0 0 32 32" width="24" height="24" style="" filter="none">
    
    <g>
    <path d="M24.879 10.792l-2.104 2.104c-0.521 0.521-1.365 0.521-1.886 0s-0.521-1.365 0-1.886l4.27-4.27c0.184-0.236 0.446-0.409 0.747-0.48 0.44-0.11 0.925 0.006 1.268 0.35 0.319 0.319 0.442 0.758 0.371 1.171v16.666c0 0.736-0.597 1.333-1.333 1.333s-1.333-0.597-1.333-1.333v-13.655zM5.768 7.94h11.556c0.736 0 1.333 0.597 1.333 1.333s-0.597 1.333-1.333 1.333h-11.556c-0.736 0-1.333-0.597-1.333-1.333s0.597-1.333 1.333-1.333zM5.768 15.051h11.556c0.736 0 1.333 0.597 1.333 1.333s-0.597 1.333-1.333 1.333h-11.556c-0.736 0-1.333-0.597-1.333-1.333s0.597-1.333 1.333-1.333zM5.768 22.162h11.556c0.736 0 1.333 0.597 1.333 1.333s-0.597 1.333-1.333 1.333h-11.556c-0.736 0-1.333-0.597-1.333-1.333s0.597-1.333 1.333-1.333z" fill="rgba(108,108,108,1)"></path>
    </g>
  </svg>