<svg xmlns="http://www.w3.org/2000/svg" xmlns:xlink="http://www.w3.org/1999/xlink" viewBox="0 0 32 32" width="24" height="24" style="" filter="none">
    
    <g>
    <path d="M24.042 21.209l2.104-2.104c0.521-0.521 1.365-0.521 1.886 0s0.521 1.365 0 1.886l-4.27 4.27c-0.184 0.236-0.446 0.409-0.747 0.48-0.44 0.11-0.925-0.006-1.269-0.35-0.319-0.319-0.442-0.758-0.371-1.171v-16.666c0-0.736 0.597-1.333 1.333-1.333s1.333 0.597 1.333 1.333v13.655zM4.911 7.94h11.556c0.736 0 1.333 0.597 1.333 1.333s-0.597 1.333-1.333 1.333h-11.556c-0.736 0-1.333-0.597-1.333-1.333s0.597-1.333 1.333-1.333zM4.911 15.051h11.556c0.736 0 1.333 0.597 1.333 1.333s-0.597 1.333-1.333 1.333h-11.556c-0.736 0-1.333-0.597-1.333-1.333s0.597-1.333 1.333-1.333zM4.911 22.162h11.556c0.736 0 1.333 0.597 1.333 1.333s-0.597 1.333-1.333 1.333h-11.556c-0.736 0-1.333-0.597-1.333-1.333s0.597-1.333 1.333-1.333z" fill="rgba(108,108,108,1)"></path>
    </g>
  </svg>