<svg xmlns="http://www.w3.org/2000/svg" xmlns:xlink="http://www.w3.org/1999/xlink" viewBox="0 0 32 32" width="24" height="28" style="" filter="none">
    
    <g>
    <path d="M16 1.333l12.667 7.333v14.667l-12.667 7.333-12.667-7.333v-14.667l12.667-7.333zM16 4.415l-10 5.789v11.592l10 5.789 10-5.789v-11.592l-10-5.789zM16 21.333c-2.946 0-5.333-2.388-5.333-5.333s2.388-5.333 5.333-5.333v0c2.946 0 5.333 2.388 5.333 5.333s-2.388 5.333-5.333 5.333v0zM16 18.667c1.473 0 2.667-1.194 2.667-2.667s-1.194-2.667-2.667-2.667v0c-1.473 0-2.667 1.194-2.667 2.667s1.194 2.667 2.667 2.667v0z" fill="rgba(16,16,16,1)"></path>
    </g>
  </svg>