<svg xmlns="http://www.w3.org/2000/svg" xmlns:xlink="http://www.w3.org/1999/xlink" viewBox="0 0 32 32" width="24" height="24" style="" filter="none">
    
    <g>
    <path d="M28.608 30.464c-0.032-0.704-0.128-1.408-0.192-2.112-0.254-2.089-0.602-3.924-1.059-5.717l0.067 0.309c-0.192-0.672-0.416-1.312-0.64-1.984-0.416-1.312-1.376-2.048-2.592-2.528-0.992-0.384-2.016-0.608-3.008-0.96-0.224-0.096-0.288-0.032-0.32 0.16-0.258 1.092-0.467 1.852-0.695 2.605l0.087-0.333c-0.576 2.144-1.184 4.256-2.112 6.24-0.032 0.128-0.064 0.256-0.192 0.288l-0.032-0.032c-0.224-1.152-0.48-2.304-0.672-3.424-0.16-0.992-0.576-1.984-0.192-3.008 0.128-0.352-0.064-0.512-0.352-0.704-0.512-0.352-0.896-0.352-1.376 0-0.416 0.288-0.416 0.256-0.32 0.768 0.064 0.384 0.192 0.768 0.096 1.184-0.256 1.312-0.48 2.624-0.736 3.936-0.096 0.448-0.192 0.864-0.288 1.376-0.32-0.576-0.512-1.088-0.704-1.6-0.864-2.208-1.472-4.48-2.080-6.752-0.064-0.256-0.032-0.64-0.224-0.736-0.192-0.064-0.512 0.128-0.768 0.224-1.024 0.32-2.048 0.544-3.040 1.024-0.928 0.448-1.568 1.12-1.952 2.080-0.385 0.993-0.739 2.193-0.997 3.428l-0.027 0.156c-0.448 2.176-0.8 4.352-0.864 6.56-0.032 0.736 0.288 1.088 1.056 1.088h22.944c0.48 0 0.864-0.096 1.088-0.48 0.096-0.288 0.096-0.736 0.096-1.024v-0.032zM10.208 11.2c0.32 0.096 0.416 0.256 0.512 0.512 0.608 1.472 1.376 2.848 2.624 3.872 0.96 0.768 2.016 1.184 3.264 0.992 0.896-0.128 1.632-0.576 2.304-1.184 1.152-1.056 1.92-2.368 2.464-3.84 0.064-0.096 0.064-0.288 0.192-0.288 0.512 0 0.704-0.416 1.024-0.672 0.544-0.416 0.576-0.992 0.448-1.6-0.032-0.288-0.192-0.448-0.48-0.416-0.256 0.032-0.288-0.064-0.224-0.256 0.16-0.8 0.256-1.6 0.288-2.496-0.032-0.224-0.032-0.512-0.064-0.8-0.096-0.64-0.256-1.216-0.896-1.568-0.128-0.064-0.16-0.16-0.224-0.288-0.608-1.152-1.44-2.048-2.624-2.592-0.8-0.352-1.6-0.512-2.432-0.576-2.208-0.096-4.032 0.576-5.248 2.528-0.064 0.16-0.192 0.192-0.32 0.256-0.48 0.192-0.864 0.544-1.088 0.992-0.27 0.561-0.443 1.216-0.479 1.907l-0.001 0.013c-0.032 0.896 0.096 1.76 0.288 2.656 0.032 0.128 0.032 0.224-0.16 0.224s-0.32 0.128-0.352 0.288c-0.32 0.896 0.288 2.112 1.184 2.336zM11.584 9.28c-0.032-0.256 0.032-0.512 0.32-0.64 0.128-0.064 0.256-0.096 0.384 0.064 0.096 0.16 0.256 0.16 0.384 0.128 0.192 0 0.288 0.032 0.256 0.256-0.032 0.384 0.224 0.64 0.544 0.64 0.352-0.032 0.576-0.32 0.512-0.704-0.032-0.16 0.032-0.192 0.16-0.192 0.16 0 0.352 0.032 0.512-0.064 0.096-0.064 0.128 0 0.16 0.064 0.32 0.384 0.32 0.896 0 1.248-0.608 0.64-1.408 0.896-2.272 0.736-0.512-0.096-0.864-0.64-0.96-1.312v-0.224zM19.808 12.512c-0.512 0.928-1.088 1.792-1.952 2.432-1.28 0.928-2.624 0.896-3.904-0.192-1.024-0.896-1.696-2.048-2.24-3.296v-0.128c0.896 0.416 1.792 0.32 2.624-0.064 0.8-0.384 1.376-0.896 1.376-1.856 0.032-0.224 0.16-0.192 0.288-0.192 0.128 0.032 0.288-0.032 0.32 0.192 0.224 1.312 1.248 2.144 2.624 2.176 0.256 0 0.48 0 0.736-0.032 0.224-0.064 0.416-0.16 0.672-0.224-0.128 0.448-0.352 0.8-0.544 1.184zM19.072 10.848c-0.576 0-1.12-0.16-1.6-0.512-0.288-0.224-0.48-0.512-0.512-0.896 0-0.224 0.128-0.416 0.224-0.608 0.064-0.064 0.128-0.096 0.256-0.064 0.384 0.032 0.672 0.096 0.672 0.608-0.032 0.256 0.352 0.384 0.608 0.32 0.288-0.096 0.448-0.32 0.384-0.576-0.064-0.288 0.064-0.288 0.256-0.288 0.128 0 0.256 0 0.384-0.096 0.256-0.224 0.576-0.128 0.672 0.224 0.288 0.8-0.48 1.92-1.344 1.888zM11.84 4.576c0.096-0.096 0.16-0.096 0.224 0 1.184 1.504 2.848 1.888 4.64 1.984 0.736 0.032 1.44-0.032 2.144-0.256 0.384-0.096 0.512-0.288 0.416-0.544-0.128-0.288-0.352-0.256-0.608-0.192-1.344 0.384-2.656 0.32-3.968-0.096-0.064-0.032-0.096-0.064-0.16-0.064 0.704 0.096 1.376 0.16 2.080 0.128 1.184-0.032 2.272-0.384 3.2-1.12 0.256-0.192 0.352-0.128 0.48 0.096 0.384 0.64 0.544 1.312 0.64 2.016 0.064 0.64 0.096 1.28 0.064 2.016-0.416-0.672-1.024-0.576-1.632-0.576h-1.824c-0.384 0-0.64 0.16-0.832 0.48-0.128 0.16-0.224 0.224-0.416 0.192-0.043-0.015-0.092-0.024-0.144-0.024s-0.101 0.009-0.147 0.025l0.003-0.001c-0.352 0.032-0.608-0.032-0.8-0.352-0.128-0.224-0.384-0.32-0.672-0.32h-2.272c-0.64 0-0.736 0.064-1.184 0.48-0.48-1.152-0.096-3.040 0.768-3.872z" fill="rgba(79,79,79,1)"></path>
    </g>
  </svg>